<?xml version="1.0" standalone="no"?>
<!DOCTYPE svg PUBLIC "-//W3C//DTD SVG 20010904//EN"
 "http://www.w3.org/TR/2001/REC-SVG-20010904/DTD/svg10.dtd">
<svg version="1.0" xmlns="http://www.w3.org/2000/svg"
 width="512.000000pt" height="512.000000pt" viewBox="0 0 512.000000 512.000000"
 preserveAspectRatio="xMidYMid meet">
<metadata>
Created by potrace 1.11, written by Peter Selinger 2001-2013
</metadata>
<g transform="translate(0.000000,512.000000) scale(0.100000,-0.100000)"
fill="#000000" stroke="none">
<path d="M0 2560 l0 -1950 1950 0 1950 0 0 225 0 225 28 6 c87 19 240 72 327
114 430 204 730 586 837 1061 20 91 23 130 23 319 0 189 -3 228 -23 319 -105
468 -393 839 -815 1051 -85 43 -265 107 -349 125 l-28 5 0 225 0 225 -1950 0
-1950 0 0 -1950z m3600 0 l0 -1650 -1650 0 -1650 0 0 1650 0 1650 1650 0 1650
0 0 -1650z m420 1143 c343 -128 621 -418 735 -768 38 -118 55 -232 55 -375 0
-267 -74 -499 -227 -711 -153 -214 -427 -407 -655 -463 l-28 -6 0 1180 0 1180
28 -6 c15 -4 56 -18 92 -31z"/>
<path d="M600 2560 l0 -1350 1350 0 1350 0 0 1350 0 1350 -1350 0 -1350 0 0
-1350z m2400 300 l0 -750 -1050 0 -1050 0 0 750 0 750 1050 0 1050 0 0 -750z
m0 -1200 l0 -150 -1050 0 -1050 0 0 150 0 150 1050 0 1050 0 0 -150z"/>
</g>
</svg>
